<svg id="Icon" xmlns="http://www.w3.org/2000/svg" width="20" height="20" viewBox="0 0 20 20">
  <path id="Vector" d="M15,14.167H1.667V.833A.833.833,0,1,0,0,.833V15a.833.833,0,0,0,.833.833H15a.833.833,0,1,0,0-1.667Z" transform="translate(2.5 1.667)" fill="#464255"/>
  <path id="Vector-2" data-name="Vector" d="M0,.833V5A.833.833,0,0,0,1.667,5V.833A.833.833,0,0,0,0,.833Z" transform="translate(5.833 8.333)" fill="#464255"/>
  <path id="Vector-3" data-name="Vector" d="M0,.833V9.167a.833.833,0,1,0,1.667,0V.833A.833.833,0,0,0,0,.833Z" transform="translate(9.167 4.167)" fill="#464255"/>
  <path id="Vector-4" data-name="Vector" d="M0,.833V7.5a.833.833,0,1,0,1.667,0V.833A.833.833,0,0,0,0,.833Z" transform="translate(12.5 5.833)" fill="#464255"/>
  <path id="Vector-5" data-name="Vector" d="M0,.833V11.667a.833.833,0,1,0,1.667,0V.833A.833.833,0,0,0,0,.833Z" transform="translate(15.833 1.667)" fill="#464255"/>
</svg>
