<svg id="Icon" xmlns="http://www.w3.org/2000/svg" width="20" height="20" viewBox="0 0 20 20">
  <path id="Vector" d="M14.325,12.27a2.9,2.9,0,0,0-2.242-4.758H11.85a4.578,4.578,0,1,0-6.492.558A8.333,8.333,0,0,0,0,15.845a.833.833,0,1,0,1.667,0A6.667,6.667,0,0,1,8.333,9.178H9.458a2.842,2.842,0,0,0,.383,3.092A4.575,4.575,0,0,0,7.5,16.262a.833.833,0,1,0,1.667,0,2.917,2.917,0,1,1,5.833,0,.833.833,0,1,0,1.667,0,4.575,4.575,0,0,0-2.342-3.992ZM8.333,7.512A2.917,2.917,0,1,1,10.4,6.657a2.917,2.917,0,0,1-2.062.854Zm3.75,4.167a1.25,1.25,0,1,1,.884-.366A1.25,1.25,0,0,1,12.083,11.678Z" transform="translate(1.667 1.655)" fill="#464255"/>
</svg>
