<svg xmlns="http://www.w3.org/2000/svg" width="58.737" height="53.188" viewBox="0 0 58.737 53.188">
  <g id="Group_122" data-name="Group 122" transform="translate(-1606.748 -302.793)">
    <g id="Group_119" data-name="Group 119">
      <g id="Group">
        <path id="Vector" d="M13.571,11.159a1.054,1.054,0,0,1-1.06-1.069V7.4A5.225,5.225,0,0,0,7.337,2.138a5.25,5.25,0,0,0-3.69,1.539A5.089,5.089,0,0,0,2.12,7.4V10.09a1.054,1.054,0,0,1-1.06,1.069A1.054,1.054,0,0,1,0,10.09V7.4A7.481,7.481,0,0,1,2.12,2.181,7.223,7.223,0,0,1,7.294,0a7.324,7.324,0,0,1,7.294,7.354v2.694A1.008,1.008,0,0,1,13.571,11.159Z" transform="translate(1622.143 302.793)" fill="#ffd497"/>
      </g>
      <g id="Group-2" data-name="Group">
        <path id="Vector-2" data-name="Vector" d="M36.048,39.934H5.131L0,0H33.885Z" transform="translate(1616.333 310.061)" fill="#00b074"/>
      </g>
      <g id="Group-3" data-name="Group">
        <path id="Vector-3" data-name="Vector" d="M14.716,39.934,7.379,38.651,0,39.934,2.205,0H12.511Z" transform="translate(1606.748 310.061)" fill="#0a5239"/>
      </g>
      <g id="Group-4" data-name="Group">
        <path id="Vector-4" data-name="Vector" d="M7.294,11.159A7.324,7.324,0,0,1,0,3.805V1.112A1.054,1.054,0,0,1,1.06.043,1.054,1.054,0,0,1,2.12,1.112V3.805A5.188,5.188,0,0,0,7.294,9.021a5.261,5.261,0,0,0,5.216-5.259V1.069a1.06,1.06,0,1,1,2.12,0V3.762A7.342,7.342,0,0,1,7.294,11.159Z" transform="translate(1627.613 312.669)" fill="#fff"/>
      </g>
      <g id="Group-5" data-name="Group">
        <path id="Vector-5" data-name="Vector" d="M0,11.459a11.4,11.4,0,0,0,1.4,5.473H15.607L14.716.513A10.707,10.707,0,0,0,11.408,0,11.422,11.422,0,0,0,0,11.459Z" transform="translate(1636.816 333.064)" fill="#0c1e5b" opacity="0.1"/>
      </g>
      <g id="Group-6" data-name="Group">
        <path id="Vector-6" data-name="Vector" d="M22.731,11.459A11.366,11.366,0,1,1,11.366,0,11.412,11.412,0,0,1,22.731,11.459Z" transform="translate(1642.753 333.064)" fill="#ff6966"/>
      </g>
      <g id="Group-7" data-name="Group">
        <path id="Vector-7" data-name="Vector" d="M4.877,8.594a1.216,1.216,0,0,1-.891-.385L.382,4.575a1.247,1.247,0,0,1,0-1.8,1.223,1.223,0,0,1,1.781,0L4.877,5.515,9.966.385a1.223,1.223,0,0,1,1.781,0,1.247,1.247,0,0,1,0,1.8L5.768,8.209A1.288,1.288,0,0,1,4.877,8.594Z" transform="translate(1648.054 340.375)" fill="#fff"/>
      </g>
    </g>
  </g>
</svg>
