<svg xmlns="http://www.w3.org/2000/svg" width="58.665" height="43.234" viewBox="0 0 58.665 43.234">
  <g id="Group_118" data-name="Group 118" transform="translate(-1229.897 -311.041)">
    <g id="Group">
      <path id="Vector" d="M0,43.234a5.8,5.8,0,0,0,5.754-5.809V0h33.6V37.425A5.8,5.8,0,0,1,33.6,43.234" transform="translate(1235.652 311.041)" fill="#00b074"/>
    </g>
    <g id="Group-2" data-name="Group">
      <path id="Vector-2" data-name="Vector" d="M33.6,4.405V0H0V4.405a5.8,5.8,0,0,0,5.754,5.809h33.6A5.8,5.8,0,0,1,33.6,4.405Z" transform="translate(1229.897 344.061)" fill="#0a5239"/>
    </g>
    <g id="Group-3" data-name="Group">
      <g id="Group-4" data-name="Group">
        <path id="Vector-3" data-name="Vector" d="M0,0H4.287V1.871H0Z" transform="translate(1247.431 318.487)" fill="#f7c604"/>
      </g>
    </g>
    <g id="Group-5" data-name="Group">
      <g id="Group-6" data-name="Group">
        <path id="Vector-4" data-name="Vector" d="M0,0H13.17V1.871H0Z" transform="translate(1255.039 318.487)" fill="#f3f2f7"/>
      </g>
    </g>
    <g id="Group-7" data-name="Group">
      <g id="Group-8" data-name="Group">
        <path id="Vector-5" data-name="Vector" d="M0,0H4.287V1.871H0Z" transform="translate(1247.431 325.114)" fill="#f7c604"/>
      </g>
    </g>
    <g id="Group-9" data-name="Group">
      <g id="Group-10" data-name="Group">
        <path id="Vector-6" data-name="Vector" d="M0,0H13.17V1.871H0Z" transform="translate(1255.039 325.114)" fill="#f3f2f7"/>
      </g>
    </g>
    <g id="Group-11" data-name="Group">
      <g id="Group-12" data-name="Group">
        <path id="Vector-7" data-name="Vector" d="M0,0H4.287V1.871H0Z" transform="translate(1247.431 331.742)" fill="#f7c604"/>
      </g>
    </g>
    <g id="Group-13" data-name="Group">
      <g id="Group-14" data-name="Group">
        <path id="Vector-8" data-name="Vector" d="M0,0H13.17V1.871H0Z" transform="translate(1255.039 331.742)" fill="#f3f2f7"/>
      </g>
    </g>
    <g id="Group-15" data-name="Group">
      <g id="Group-16" data-name="Group">
        <path id="Vector-9" data-name="Vector" d="M0,0H4.287V1.871H0Z" transform="translate(1247.431 338.369)" fill="#f7c604"/>
      </g>
    </g>
    <g id="Group-17" data-name="Group">
      <g id="Group-18" data-name="Group">
        <path id="Vector-10" data-name="Vector" d="M0,0H13.17V1.871H0Z" transform="translate(1255.039 338.369)" fill="#f3f2f7"/>
      </g>
    </g>
    <g id="Group-19" data-name="Group">
      <path id="Vector-11" data-name="Vector" d="M12.59,22.377V.117A8.956,8.956,0,0,0,11.123,0a11.228,11.228,0,0,0,0,22.455A6.079,6.079,0,0,0,12.59,22.377Z" transform="translate(1262.416 316.304)" fill="#0c1e5b" opacity="0.1"/>
    </g>
    <g id="Group-20" data-name="Group">
      <path id="Vector-12" data-name="Vector" d="M22.245,11.227A11.123,11.123,0,1,1,11.123,0,11.175,11.175,0,0,1,22.245,11.227Z" transform="translate(1266.317 314.082)" fill="#ff5b5b"/>
    </g>
    <path id="Vector-13" data-name="Vector" d="M9.08,0,0,9.154M0,0,9.08,9.154" transform="translate(1272.727 320.731)" fill="none" stroke="#fff" stroke-width="4"/>
  </g>
</svg>
