<svg xmlns="http://www.w3.org/2000/svg" width="58.921" height="45.745" viewBox="0 0 58.921 45.745">
  <g id="Group_120" data-name="Group 120" transform="translate(-851.656 -309.831)">
    <g id="Group_117" data-name="Group 117">
      <g id="Group">
        <path id="Vector" d="M23.317,0,0,9.618l23.317,9.618L46.633,9.618Z" transform="translate(851.656 309.831)" fill="#00b074"/>
      </g>
      <g id="Group-2" data-name="Group">
        <path id="Vector-2" data-name="Vector" d="M4.389,0,0,1.77l23.317,9.657,4.35-1.808Z" transform="translate(861.121 313.755)" fill="#f7c604"/>
      </g>
      <g id="Group-3" data-name="Group">
        <path id="Vector-3" data-name="Vector" d="M0,0V26.508l23.317,9.618V9.618Z" transform="translate(851.656 319.45)" fill="#0a5239"/>
      </g>
      <g id="Group-4" data-name="Group">
        <path id="Vector-4" data-name="Vector" d="M23.317,0V26.508L0,36.127V9.618Z" transform="translate(874.973 319.45)" fill="#00d68d"/>
      </g>
      <g id="Group-5" data-name="Group">
        <path id="Vector-5" data-name="Vector" d="M12.326.231A9.487,9.487,0,0,0,10.227,0,10.314,10.314,0,0,0,2.633,17.2l9.693-4V.231Z" transform="translate(885.964 332.761)" fill="#0c1e5b" opacity="0.1"/>
      </g>
      <g id="Group-6" data-name="Group">
        <path id="Vector-6" data-name="Vector" d="M0,1.808V12.927l4.35-1.808V0Z" transform="translate(884.437 323.374)" fill="#f7c604"/>
      </g>
      <g id="Group-7" data-name="Group">
        <path id="Vector-7" data-name="Vector" d="M20.455,10.311A10.228,10.228,0,1,1,10.227,0,10.269,10.269,0,0,1,20.455,10.311Z" transform="translate(890.123 331.992)" fill="#ff5b5b"/>
      </g>
      <g id="Group-8" data-name="Group">
        <path id="Vector-8" data-name="Vector" d="M4.389,7.733a1.094,1.094,0,0,1-.8-.346L.343,4.117a1.122,1.122,0,0,1,0-1.616,1.1,1.1,0,0,1,1.6,0L4.389,4.963,8.968.346a1.1,1.1,0,0,1,1.6,0,1.122,1.122,0,0,1,0,1.616L5.19,7.387A1.094,1.094,0,0,1,4.389,7.733Z" transform="translate(894.894 338.571)" fill="#fff"/>
      </g>
      <g id="Group-9" data-name="Group">
        <path id="Vector-9" data-name="Vector" d="M4.885,5.232,2.366,0,0,3.116l1.3.577V7.079l2.1.962V4.617Z" transform="translate(854.328 337.147)" fill="#f2f5f3"/>
      </g>
    </g>
  </g>
</svg>
