<svg xmlns="http://www.w3.org/2000/svg" width="24.5" height="24.5" viewBox="0 0 24.5 24.5">
  <g id="Layer_2" data-name="Layer 2" transform="translate(-1.75 -1.75)">
    <path id="Vector" d="M21.875,4.375H21V.875A.875.875,0,0,0,19.7.11L12.25,4.249,4.8.11A.875.875,0,0,0,3.5.875v3.5H2.625A2.628,2.628,0,0,0,0,7V9.625A2.628,2.628,0,0,0,2.625,12.25H3.5v9.625A2.628,2.628,0,0,0,6.125,24.5h12.25A2.628,2.628,0,0,0,21,21.875V12.25h.875A2.628,2.628,0,0,0,24.5,9.625V7a2.628,2.628,0,0,0-2.625-2.625Zm-2.625,0H15.627L19.25,2.362Zm-14-2.012L8.873,4.375H5.25Zm0,19.512V12.25h6.125v10.5H6.125a.876.876,0,0,1-.875-.875Zm14,0a.876.876,0,0,1-.875.875h-5.25V12.25H19.25Zm3.5-12.25a.876.876,0,0,1-.875.875H2.625a.876.876,0,0,1-.875-.875V7a.876.876,0,0,1,.875-.875h19.25A.876.876,0,0,1,22.75,7Z" transform="translate(1.75 1.75)" fill="#5e6c93"/>
  </g>
</svg>
