<svg id="Icon" xmlns="http://www.w3.org/2000/svg" width="28" height="28" viewBox="0 0 28 28">
  <path id="Vector" d="M2.333,1.167A1.167,1.167,0,1,1,1.167,0,1.167,1.167,0,0,1,2.333,1.167Z" transform="translate(12.833 11.666)" fill="#2d9cdb"/>
  <path id="Vector-2" data-name="Vector" d="M2.333,1.167A1.167,1.167,0,1,1,1.167,0,1.167,1.167,0,0,1,2.333,1.167Z" transform="translate(8.167 11.666)" fill="#2d9cdb"/>
  <path id="Vector-3" data-name="Vector" d="M2.333,1.167A1.167,1.167,0,1,1,1.167,0,1.167,1.167,0,0,1,2.333,1.167Z" transform="translate(17.5 11.666)" fill="#2d9cdb"/>
  <path id="Vector-4" data-name="Vector" d="M1.225,22.015a2.007,2.007,0,0,0,.77.152,1.948,1.948,0,0,0,1.4-.583l2.917-2.917H17.5a5.833,5.833,0,0,0,5.833-5.833v-7A5.833,5.833,0,0,0,17.5,0H5.833A5.833,5.833,0,0,0,0,5.833V20.172a1.972,1.972,0,0,0,1.225,1.843ZM2.333,5.833a3.5,3.5,0,0,1,3.5-3.5H17.5a3.5,3.5,0,0,1,3.5,3.5v7a3.5,3.5,0,0,1-3.5,3.5H5.833a1.167,1.167,0,0,0-.828.338L2.333,19.355Z" transform="translate(2.333 3.5)" fill="#2d9cdb"/>
</svg>
