<svg xmlns="http://www.w3.org/2000/svg" width="21.814" height="21.812" viewBox="0 0 21.814 21.812">
  <g id="Layer_2" data-name="Layer 2" transform="translate(-3.097 -3.097)">
    <path id="Vector" d="M4.375,0A4.38,4.38,0,1,0,7.467,1.283,4.375,4.375,0,0,0,4.375,0Zm0,7A2.628,2.628,0,1,1,6.23,6.23,2.625,2.625,0,0,1,4.375,7Z" transform="translate(9.625 9.625)" fill="#ff5b5b"/>
    <path id="Vector-2" data-name="Vector" d="M2.393,5.463a1.77,1.77,0,0,0-1.35,3.271,2.355,2.355,0,0,1,0,4.339,1.77,1.77,0,0,0,1.35,3.271,2.356,2.356,0,0,1,3.07,3.071,1.753,1.753,0,0,0,.99,2.263,1.776,1.776,0,0,0,.679.135,1.73,1.73,0,0,0,1.6-1.048,2.355,2.355,0,0,1,4.339,0,1.77,1.77,0,0,0,3.271-1.35,2.356,2.356,0,0,1,3.071-3.07,1.751,1.751,0,0,0,2.256-.975l-.8-.349-.8-.3a4.1,4.1,0,0,0-4.45.9,4.2,4.2,0,0,0-.936,4.464A4.092,4.092,0,0,0,10.9,17.576a4.189,4.189,0,0,0-3.819,2.5,4.1,4.1,0,0,0-.9-4.45,4.2,4.2,0,0,0-4.464-.936A4.092,4.092,0,0,0,4.231,10.9a4.189,4.189,0,0,0-2.5-3.819,4.1,4.1,0,0,0,4.45-.9,4.2,4.2,0,0,0,.936-4.464A4.092,4.092,0,0,0,10.9,4.231a4.189,4.189,0,0,0,3.819-2.5,4.1,4.1,0,0,0,.9,4.45,4.2,4.2,0,0,0,4.464.936,4.1,4.1,0,0,0-.027,7.544.035.035,0,0,1,0,.022l.809.334.8.345,0-.011a1.747,1.747,0,0,0-.913-2.281,2.355,2.355,0,0,1,0-4.339,1.77,1.77,0,0,0-1.35-3.271,2.356,2.356,0,0,1-3.07-3.071,1.77,1.77,0,0,0-3.27-1.35,2.355,2.355,0,0,1-4.339,0,1.77,1.77,0,0,0-3.271,1.35,2.356,2.356,0,0,1-3.071,3.07Z" transform="translate(3.097 3.097)" fill="#ff5b5b"/>
  </g>
</svg>
